<?xml version="1.0" encoding="UTF-8" standalone="no"?>
<!DOCTYPE svg PUBLIC "-//W3C//DTD SVG 1.1//EN" "http://www.w3.org/Graphics/SVG/1.1/DTD/svg11.dtd">
<svg width="100%" height="100%" viewBox="0 0 204 204" version="1.1" xmlns="http://www.w3.org/2000/svg" xmlns:xlink="http://www.w3.org/1999/xlink" xml:space="preserve" xmlns:serif="http://www.serif.com/" style="fill-rule:evenodd;clip-rule:evenodd;stroke-linejoin:round;stroke-miterlimit:2;">
    <g transform="matrix(1,0,0,1,-370.452,-63.3599)">
        <g>
            <g transform="matrix(1,0,0,1,259.465,-59.638)">
                <rect x="110.987" y="122.998" width="203.684" height="203.684" style="fill:rgb(237,235,222);"/>
            </g>
            <g transform="matrix(1,0,0,1,50.238,61.4104)">
                <path d="M440.16,51.217C454.063,51.217 463.55,62.505 461.333,76.407L459.451,88.209C457.239,102.085 444.178,113.35 430.302,113.35L424.059,113.35L432.479,60.548C432.444,58.564 431.496,57.925 429.44,58.525L417.851,131.209C415.637,145.093 402.568,156.365 388.684,156.365L382.456,156.365L395.214,76.353C397.426,62.48 410.485,51.217 424.358,51.217L440.16,51.217Z" style="fill:rgb(57,57,57);"/>
            </g>
        </g>
    </g>
</svg>
